<svg width="21" height="17" viewBox="0 0 21 17" fill="none" xmlns="http://www.w3.org/2000/svg">
<path opacity="0.25" d="M0.619995 16.44C0.619995 13.56 0.640699 11.48 0.682107 10.2C0.764923 6.76 1.30322 4.22 2.29701 2.58C3.2908 0.9 5.02993 0.0399995 7.51441 0L8.50819 2.7C7.10033 2.78 6.14795 3.3 5.65105 4.26C5.15416 5.22 4.90571 6.72 4.90571 8.76H8.75664V16.44H0.619995ZM12.4833 16.44C12.4833 13.56 12.5041 11.48 12.5455 10.2C12.6283 6.76 13.1666 4.22 14.1604 2.58C15.1542 0.9 16.8933 0.0399995 19.3778 0L20.3715 2.7C18.9637 2.78 18.0113 3.3 17.5144 4.26C17.0175 5.22 16.7691 6.72 16.7691 8.76H20.62V16.44H12.4833Z" fill="#031B4E"/>
</svg>
