<svg width="8" height="6" viewBox="0 0 8 6" fill="none" xmlns="http://www.w3.org/2000/svg">
<path opacity="0.25" d="M7.05103 0C7.05103 1.05109 7.04373 1.81022 7.02913 2.27737C6.99993 3.53285 6.81015 4.45985 6.45978 5.05839C6.10942 5.67153 5.49628 5.9854 4.62037 6L4.27 5.0146C4.76635 4.9854 5.10212 4.79562 5.2773 4.44526C5.45249 4.09489 5.54008 3.54744 5.54008 2.80292L4.18241 2.80292L4.18241 -2.50782e-07L7.05103 0ZM2.86854 -3.65644e-07C2.86854 1.05109 2.86124 1.81022 2.84665 2.27737C2.81745 3.53285 2.62767 4.45985 2.2773 5.05839C1.92694 5.67153 1.3138 5.9854 0.437886 6L0.0875221 5.0146C0.583872 4.9854 0.919638 4.79562 1.09482 4.44526C1.27 4.09489 1.3576 3.54744 1.3576 2.80292L-6.88619e-05 2.80292L-6.86169e-05 -6.16426e-07L2.86854 -3.65644e-07Z" fill="#031B4E"/>
</svg>
